<svg xmlns="http://www.w3.org/2000/svg" width="720" height="460" viewBox="0 0 720 460">
  <defs>
    <linearGradient id="paper" x1="0" x2="1" y1="0" y2="1">
      <stop offset="0" stop-color="#f7fbff"/>
      <stop offset="0.48" stop-color="#fffdf7"/>
      <stop offset="1" stop-color="#f2fff8"/>
    </linearGradient>
    <linearGradient id="rail" x1="0" x2="1">
      <stop offset="0" stop-color="#00d084"/>
      <stop offset="0.5" stop-color="#36a3ff"/>
      <stop offset="1" stop-color="#ff5b7f"/>
    </linearGradient>
    <filter id="softShadow" x="-20%" y="-20%" width="140%" height="140%">
      <feDropShadow dx="0" dy="16" stdDeviation="18" flood-color="#111111" flood-opacity="0.14"/>
    </filter>
  </defs>

  <rect width="720" height="460" fill="url(#paper)"/>
  <rect x="0" y="0" width="720" height="8" fill="url(#rail)"/>

  <g opacity="0.055" fill="#111111" transform="translate(470 58) scale(14.4)">
    <path fill-rule="evenodd" d="M0.92 15.25 L4.62 2.85 H6.88 L10.62 15.25 H7.72 L7.08 12.78 H4.36 L3.7 15.25 Z M4.52 10.45 H6.92 L5.72 6.45 Z"/>
    <circle cx="11.65" cy="7.05" r="0.92"/>
    <circle cx="11.65" cy="12.28" r="0.92"/>
    <path d="M16.02 2.85 H17.5 L14.02 15.25 H12.54 Z"/>
  </g>

  <g transform="translate(42 38)">
    <rect x="0" y="0" width="118" height="30" rx="15" fill="#111111"/>
    <text x="20" y="20" font-family="Inter, -apple-system, BlinkMacSystemFont, Helvetica, Arial, sans-serif" font-size="12" font-weight="800" fill="#ffffff" letter-spacing="2">FLOPPY</text>
    <text x="0" y="78" font-family="Inter, -apple-system, BlinkMacSystemFont, Helvetica, Arial, sans-serif" font-size="36" font-weight="850" fill="#111111">Install your private drive</text>
    <text x="2" y="111" font-family="Inter, -apple-system, BlinkMacSystemFont, Helvetica, Arial, sans-serif" font-size="16" font-weight="550" fill="#3b424a">Drag Floppy into Applications. Your files stay with WordPress.</text>
  </g>

  <g filter="url(#softShadow)">
    <rect x="86" y="190" width="210" height="174" rx="26" fill="#ffffff"/>
    <rect x="424" y="190" width="210" height="174" rx="26" fill="#ffffff"/>
  </g>
  <rect x="88" y="192" width="206" height="170" rx="24" fill="none" stroke="#111111" stroke-opacity="0.08" stroke-width="2"/>
  <rect x="426" y="192" width="206" height="170" rx="24" fill="none" stroke="#111111" stroke-opacity="0.08" stroke-width="2"/>

  <g transform="translate(326 250)" fill="none" stroke="#111111" stroke-width="7" stroke-linecap="round" stroke-linejoin="round">
    <path d="M0 28 H67"/>
    <path d="M44 5 L67 28 L44 51"/>
  </g>
  <g transform="translate(326 250)" opacity="0.35" fill="none" stroke="#00d084" stroke-width="3" stroke-linecap="round">
    <path d="M0 44 H40"/>
  </g>

  <text x="190" y="402" text-anchor="middle" font-family="Inter, -apple-system, BlinkMacSystemFont, Helvetica, Arial, sans-serif" font-size="13" font-weight="750" fill="#111111">Drag this app</text>
  <text x="530" y="402" text-anchor="middle" font-family="Inter, -apple-system, BlinkMacSystemFont, Helvetica, Arial, sans-serif" font-size="13" font-weight="750" fill="#111111">Drop it here</text>

  <g transform="translate(42 428)">
    <rect x="0" y="-18" width="636" height="1" fill="#111111" opacity="0.12"/>
    <circle cx="8" cy="8" r="5" fill="#00d084"/>
    <text x="24" y="13" font-family="Inter, -apple-system, BlinkMacSystemFont, Helvetica, Arial, sans-serif" font-size="12" font-weight="650" fill="#3b424a">Private storage</text>
    <circle cx="144" cy="8" r="5" fill="#36a3ff"/>
    <text x="160" y="13" font-family="Inter, -apple-system, BlinkMacSystemFont, Helvetica, Arial, sans-serif" font-size="12" font-weight="650" fill="#3b424a">Desktop Mode control center</text>
    <circle cx="360" cy="8" r="5" fill="#ff5b7f"/>
    <text x="376" y="13" font-family="Inter, -apple-system, BlinkMacSystemFont, Helvetica, Arial, sans-serif" font-size="12" font-weight="650" fill="#3b424a">Finder-native sync</text>
  </g>
</svg>
